<?xml version="1.0" ?><svg id="object" viewBox="0 0 32 32" xmlns="http://www.w3.org/2000/svg"><defs><style>.cls-1{fill:#96d7ff;}.cls-2{fill:#86c3ef;}</style></defs><title/><path class="cls-1" d="M30.58,11.19l-14-10a1,1,0,0,0-1.16,0l-14,10A1,1,0,0,0,1,12V30a1,1,0,0,0,1,1h9a1,1,0,0,0,1-1V23a4,4,0,0,1,8,0v7a1,1,0,0,0,1,1h9a1,1,0,0,0,1-1V12A1,1,0,0,0,30.58,11.19Z"/><path class="cls-2" d="M2.5,13.25a1,1,0,0,1,.42-.81l14-10a1,1,0,0,1,1.16,0L30.91,11.6a.94.94,0,0,0-.33-.41l-14-10a1,1,0,0,0-1.16,0l-14,10A1,1,0,0,0,1,12V30a1,1,0,0,0,1,1h.5Z"/></svg>